# xmcd
#
# Track frame offsets: 
#        150
#        13987
#        29212
#        43025
#        57067
#        69125
#        82707
#        97192
#        110315
#        123785
#        137990
#        152617
#        165537
#        179165
#        194262
#        207642
#        222242
#        235075
#        249825
#        263412
#        276862
#        292062
#        305637
#        318677
#
# Disc length: 4388 seconds
#
# Revision: 4
# Processed by: cddbd v1.5.2PL0 Copyright (c) Steve Scherf et al.
# Submitted via: ExactAudioCopyFreeDBPlugin 1.0
#
DISCID=62112218
DTITLE=Various Artist - White Country Blues 1926-1938 [disc 1]
DYEAR=1993
DGENRE=Other
TTITLE0=Frank Hutchinson - K.C. Blues
TTITLE1=Frank Hutchinson - Cannon Ball Blues
TTITLE2=Charlie Poole with The North Carolina Ramblers - Leaving Home
TTITLE3=Charlie Poole with The North Carolina Ramblers - If The River 
TTITLE3=Was Whiskey
TTITLE4=Cauley Family - Duplin County Blues
TTITLE5=Tom Darby and Jimmie Tarlton - Sweet Sarah Blues
TTITLE6=Tom Darby and Jimmie Tarlton - Frankie Dean
TTITLE7=Riley Puckett - A Darkey's Wail
TTITLE8=Clarence Green - Johnson City Blues
TTITLE9=The Carolina Buddies - Mistreated Blues
TTITLE10=Tom Ashley - Haunted Road Blues
TTITLE11=Roy Acuff and His Crazy Tennesseans - Steel Guitar Blues
TTITLE12=Carlisle and Ball - Guitar Blues
TTITLE13=Carlisle and Ball - I Want A Good Woman
TTITLE14=Cliff Carlisle - Ash Can Blues
TTITLE15=Val and Pete - Yodel Blues (Part 1)
TTITLE16=Val and Pete - Yodel Blues (Part 2)
TTITLE17=Mr. and Mrs. Chris Bouchillion - Adam and Eve (Part 2)
TTITLE18=W.T. Narmour and S.W. Smith - Carroll County Blues
TTITLE19=Charlie Poole with The North Carolina Ramblers - Ramblin' Blu
TTITLE19=es
TTITLE20=Frank Hutchinson - Worried Blues
TTITLE21=Frank Hutchinson - Train That Carried The Girl From Town
TTITLE22=Roy Harvey and Leonard Copeland - Lonesome Weary Blues
TTITLE23=W. Lee O'Daniel and His Hillbilly Boys - Bear Cat Mama
EXTD=YEAR: 1993
EXTT0=
EXTT1=
EXTT2=
EXTT3=
EXTT4=
EXTT5=
EXTT6=
EXTT7=
EXTT8=
EXTT9=
EXTT10=
EXTT11=
EXTT12=
EXTT13=
EXTT14=
EXTT15=
EXTT16=
EXTT17=
EXTT18=
EXTT19=
EXTT20=
EXTT21=
EXTT22=
EXTT23=
PLAYORDER=
